<svg width="24" height="24" viewBox="0 0 24 24" fill="none" xmlns="http://www.w3.org/2000/svg">
<path d="M21.97 18.3301C21.97 18.6901 21.89 19.0601 21.72 19.4201C21.55 19.7801 21.33 20.1201 21.04 20.4401C20.55 20.9801 20.01 21.3701 19.4 21.6201C18.8 21.8701 18.15 22.0001 17.45 22.0001C16.43 22.0001 15.34 21.7601 14.19 21.2701C13.04 20.7801 11.89 20.1201 10.75 19.2901C9.6 18.4501 8.51 17.5201 7.47 16.4901C6.44 15.4501 5.51 14.3601 4.68 13.2201C3.86 12.0801 3.2 10.9401 2.72 9.81012C2.24 8.67012 2 7.58012 2 6.54012C2 5.86012 2.12 5.21012 2.36 4.61012C2.6 4.00012 2.98 3.44012 3.51 2.94012C4.15 2.31012 4.85 2.00012 5.59 2.00012C5.87 2.00012 6.15 2.06012 6.4 2.18012C6.66 2.30012 6.89 2.48012 7.07 2.74012L9.39 6.01012C9.57 6.26012 9.7 6.49012 9.79 6.71012C9.88 6.92012 9.93 7.13012 9.93 7.32012C9.93 7.56012 9.86 7.80012 9.72 8.03012C9.59 8.26012 9.4 8.50012 9.16 8.74012L8.4 9.53012C8.29 9.64012 8.24 9.77012 8.24 9.93012C8.24 10.0101 8.25 10.0801 8.27 10.1601C8.3 10.2401 8.33 10.3001 8.35 10.3601C8.53 10.6901 8.84 11.1201 9.28 11.6401C9.73 12.1601 10.21 12.6901 10.73 13.2201C11.27 13.7501 11.79 14.2401 12.32 14.6901C12.84 15.1301 13.27 15.4301 13.61 15.6101C13.66 15.6301 13.72 15.6601 13.79 15.6901C13.87 15.7201 13.95 15.7301 14.04 15.7301C14.21 15.7301 14.34 15.6701 14.45 15.5601L15.21 14.8101C15.46 14.5601 15.7 14.3701 15.93 14.2501C16.16 14.1101 16.39 14.0401 16.64 14.0401C16.83 14.0401 17.03 14.0801 17.25 14.1701C17.47 14.2601 17.7 14.3901 17.95 14.5601L21.26 16.9101C21.52 17.0901 21.7 17.3001 21.81 17.5501C21.91 17.8001 21.97 18.0501 21.97 18.3301Z" fill="#171717"/>
</svg>
